<svg xmlns="http://www.w3.org/2000/svg" viewBox="0 0 100 100">
  <g transform="translate(10, 10) scale(0.8)">
    <path d="M30,20 C10,30 10,70 30,80 C50,90 70,80 80,60 C90,40 80,20 60,10 C45,5 40,15 30,20 Z" fill="#196119" />
    <path d="M35,30 C30,35 25,45 30,55 C35,65 45,60 55,55 C65,50 70,40 65,30 C60,20 40,25 35,30 Z" fill="#247324" />
    <path d="M45,35 C40,40 40,50 45,55 C50,60 60,55 60,45 C60,35 50,30 45,35 Z" fill="#196119" />
    <path d="M45,35 Q50,40 55,35" stroke="#0B4E0B" stroke-width="1" fill="none" />
    <path d="M45,45 Q50,50 55,45" stroke="#0B4E0B" stroke-width="1" fill="none" />
  </g>
</svg>
