<svg xmlns="http://www.w3.org/2000/svg" viewBox="0 0 100 100">
  <g transform="translate(10, 10) scale(0.8)">
    <path d="M50,10 L70,30 L90,30 L90,50 L70,70 L50,90 L30,70 L10,50 L10,30 L30,30 Z" fill="#FFE7A2" />
    <path d="M30,30 L50,10 L70,30 L90,30 L90,50 L70,70 L50,90 L30,70 L10,50 L10,30 Z" stroke="#DBBD72" stroke-width="2" fill="none" />
    <path d="M30,40 L40,30 L60,30 L70,40 L70,60 L60,70 L40,70 L30,60 Z" stroke="#DBBD72" stroke-width="1" fill="none" />
    <circle cx="50" cy="50" r="5" fill="#DBBD72" />
  </g>
</svg>
